# xmcd
#
# Track frame offsets: 
#        150
#        17380
#        45227
#        59695
#        69925
#        90915
#        108102
#        137015
#        154752
#        185890
#        215237
#        243907
#        259912
#        281390
#        310335
#        327237
#
# Disc length: 4516 seconds
#
# Revision: 1
# Processed by: cddbd v1.5.2PL0 Copyright (c) Steve Scherf et al.
# Submitted via: ExactAudioCopy v1.0b2
#
DISCID=db11a210
DTITLE=Haydn - Quatuors Wiener Konzethaus 6
DYEAR=1900
DGENRE=
TTITLE0=Op.3 №6 A-Dur 1-Presto 
TTITLE1=Op.3 №6 A-Dur 2-adagio
TTITLE2=Op.3 №6 A-Dur 3-Menuetto
TTITLE3=Op.3 №6 A-Dur 4-Scherzando
TTITLE4=Op.17 №2 F-Dur 1-Moderato
TTITLE5=Op.17 №2 F-Dur 2-Menuetto Allegretto
TTITLE6=Op.17 №2 F-Dur 3-Adagio
TTITLE7=Op.17 №2 F-Dur 4-Allegro di molto
TTITLE8=Op.20 №5 f-moll 1-Allegro moderato
TTITLE9=Op.20 №5 f-moll 2-Menuetto
TTITLE10=Op.20 №5 f-moll 3-Adagio
TTITLE11=Op.20 №5 f-moll 4-Finale Fuga a 2 Sogetti
TTITLE12=Op.50 №3 Es-Dur 1-Allegro con brio
TTITLE13=Op.50 №3 Es-Dur 2-Andante piu tosto allegretto
TTITLE14=Op.50 №3 Es-Dur 3-Menuetto-Allegretto
TTITLE15=Op.50 №3 Es-Dur 4-Finale Presto
EXTD=
EXTT0=
EXTT1=
EXTT2=
EXTT3=
EXTT4=
EXTT5=
EXTT6=
EXTT7=
EXTT8=
EXTT9=
EXTT10=
EXTT11=
EXTT12=
EXTT13=
EXTT14=
EXTT15=
PLAYORDER=
